G04 #@! TF.GenerationSoftware,KiCad,Pcbnew,(5.1.4)-1*
G04 #@! TF.CreationDate,2019-12-03T11:07:22+01:00*
G04 #@! TF.ProjectId,dps3005,64707333-3030-4352-9e6b-696361645f70,rev?*
G04 #@! TF.SameCoordinates,PX44300e0PY2cd29c0*
G04 #@! TF.FileFunction,Profile,NP*
%FSLAX45Y45*%
G04 Gerber Fmt 4.5, Leading zero omitted, Abs format (unit mm)*
G04 Created by KiCad (PCBNEW (5.1.4)-1) date 2019-12-03 11:07:22*
%MOMM*%
%LPD*%
G04 APERTURE LIST*
%ADD10C,0.200000*%
%ADD11C,0.120000*%
G04 APERTURE END LIST*
D10*
X9670285Y-4578483D02*
X9670285Y-4560000D01*
X910285Y-4578483D02*
X910285Y-4560000D01*
X910285Y-10000D02*
X910285Y1517D01*
X1920000Y-4260000D02*
X1920000Y-310000D01*
X9520000Y-4260000D02*
X1920000Y-4260000D01*
X9520000Y-310000D02*
X9520000Y-4260000D01*
X1920000Y-310000D02*
X9520000Y-310000D01*
D11*
X1405000Y-3150000D02*
G75*
G03X1405000Y-3150000I-400000J0D01*
G01*
D10*
X10066188Y1537D02*
G75*
G02X10410601Y-286393I-56J-350020D01*
G01*
X169339Y-290114D02*
G75*
G02X514438Y1517I345099J-58369D01*
G01*
X514351Y-4578532D02*
G75*
G02X170320Y-4292650I87J350049D01*
G01*
X9670285Y1517D02*
X9670285Y-10000D01*
X514438Y1517D02*
X910285Y1517D01*
X910285Y-10000D02*
X9670285Y-10000D01*
X9670285Y-4560000D02*
X910285Y-4560000D01*
X910285Y-4578483D02*
X514438Y-4578483D01*
X10410601Y-286393D02*
G75*
G02X10411240Y-4286797I-11825584J-2002090D01*
G01*
X170320Y-4292650D02*
G75*
G02X169325Y-290200I11831454J2004167D01*
G01*
X10411240Y-4286797D02*
G75*
G02X10066132Y-4578483I-345108J58314D01*
G01*
X9670285Y1517D02*
X10066132Y1517D01*
X10066132Y-4578483D02*
X9670285Y-4578483D01*
M02*
